<svg xmlns="http://www.w3.org/2000/svg" viewBox="0 0 1616.59 700"><defs><style>.cls-1{fill:none;stroke:#231f20;stroke-miterlimit:10;stroke-width:40px;}.cls-2{fill:#231f20;}</style></defs><g id="Artwork"><path class="cls-1" d="M583.72,343.89v0A229.66,229.66,0,0,1,365.46,573.3c-.95.06-1.91.11-2.86.15s-1.69.07-2.54.09c-1.13,0-2.26.05-3.4.05-.88,0-1.76,0-2.64,0-4.08,0-8.09-.13-12.09-.31A229.87,229.87,0,0,1,124.24,343.91v0A229.87,229.87,0,0,1,341.93,114.45c4-.19,8-.31,12.09-.31l2.64,0q9.22.09,18.22.93a227.75,227.75,0,0,1,121.56,48.53q6.24,4.94,12.11,10.29,3.52,3.21,6.91,6.55c.75.74,1.5,1.49,2.24,2.25,1.49,1.51,2.95,3,4.4,4.59q3.24,3.48,6.35,7.11c1.37,1.6,2.73,3.23,4.06,4.87q3,3.69,5.86,7.53,1.5,2,3,4.07A229.26,229.26,0,0,1,565.91,255c.66,1.57,1.31,3.16,1.94,4.75.39,1,.78,2,1.15,3,.77,2,1.5,4,2.21,6.08a227.25,227.25,0,0,1,6.52,22.66q2.09,8.94,3.46,18.14c.06.37.12.75.16,1.12.26,1.74.49,3.5.7,5.26.19,1.58.37,3.18.53,4.79.41,4.12.72,8.28.9,12.47Q583.72,338.58,583.72,343.89Z"/><path class="cls-1" d="M583.72,343.89v0A229.66,229.66,0,0,1,365.46,573.3c-3-1.71-5.9-3.46-8.8-5.29L354,566.29c-.07,0-.2-.12-.33-.18a261.18,261.18,0,0,1-119.4-219.28v-2.94a260.17,260.17,0,0,1,47-146.49A263.68,263.68,0,0,1,354,127.24l2.64-1.68c.52-.32,1-.63,1.55-.93,5.4-3.44,11-6.55,16.67-9.54A262.07,262.07,0,0,1,565.53,95.24a257.73,257.73,0,0,1-69.09,68.38q6.24,4.94,12.11,10.29,3.52,3.21,6.91,6.55c.75.74,1.5,1.49,2.24,2.25q2.22,2.25,4.4,4.59,3.24,3.48,6.35,7.11c1.37,1.59,2.73,3.22,4.06,4.87q3,3.69,5.86,7.53,1.5,2,3,4.07A229.26,229.26,0,0,1,565.91,255c.66,1.57,1.3,3.16,1.94,4.75.39,1,.78,2,1.15,3,.76,2,1.49,4,2.21,6.08a227.25,227.25,0,0,1,6.52,22.66q2.09,8.94,3.46,18.14c.06.37.12.75.16,1.12.26,1.75.49,3.5.7,5.26.19,1.58.37,3.18.53,4.79.41,4.12.72,8.28.9,12.47Q583.72,338.58,583.72,343.89Z"/><path class="cls-1" d="M496.44,524.12a228.11,228.11,0,0,1-131,49.18c-.95.06-1.91.11-2.86.15s-1.69.07-2.54.09c-1.13,0-2.26.05-3.4.05-.88,0-1.76,0-2.64,0-4.08,0-8.09-.13-12.09-.31a264.94,264.94,0,0,1-205.61,23.85A259.53,259.53,0,0,1,210.25,523a257.35,257.35,0,0,1,142.3-42.69H354l2.64,0a257.09,257.09,0,0,1,139.78,43.74Z"/><line class="cls-1" x1="356.66" y1="114.15" x2="356.66" y2="573.62"/><path class="cls-1" d="M475.13,343.89v0a262.12,262.12,0,0,1-45.48,148.15,264.87,264.87,0,0,1-73,72.13L354,565.92c-.14.06-.2.19-.33.19-3.88,2.54-7.76,4.89-11.76,7.19a264.94,264.94,0,0,1-205.61,23.85A259.53,259.53,0,0,1,210.25,523a228.94,228.94,0,0,1-86-179.13v0A229.87,229.87,0,0,1,341.93,114.45c4.07,2.35,8.14,4.83,12.09,7.38.88.56,1.76,1.15,2.64,1.75.52.34,1,.7,1.55,1a265.5,265.5,0,0,1,71.44,71.05A262.48,262.48,0,0,1,475.13,343.89Z"/><path class="cls-1" d="M565.53,95.24a257.73,257.73,0,0,1-69.09,68.38,259.19,259.19,0,0,1-66.79,32.06,258.43,258.43,0,0,1-73,11.69l-2.64,0h-1.47a258.46,258.46,0,0,1-71.31-10,256.47,256.47,0,0,1-71-32.69,228,228,0,0,1,131.68-50.26c4-.19,8-.31,12.09-.31l2.64,0q9.22.09,18.22.93A262.07,262.07,0,0,1,565.53,95.24Z"/><line class="cls-1" x1="124.25" y1="343.89" x2="583.72" y2="343.89"/><path class="cls-2" d="M700.27,241h99.14c7.85,0,13.61,2,17.53,6.39q6.28,6.1,6.28,18.31c0,8.43-2.09,14.53-6.28,18.6-3.92,4.36-9.68,6.39-17.53,6.39H776.66c-32.44.88-45.52,16.57-49.7,36.91V290.7H700.27c-7.84,0-13.6-2-17.52-6.39-4.19-4.07-6.28-10.17-6.28-18.6C676.47,248.56,685.63,241,700.27,241ZM727,412.48V352.61c0-31.39,17-48.83,45.51-50V412.48c0,17.15-5.75,31.1-22.5,31.1C733,443.58,727,429.63,727,412.48Z"/><path class="cls-2" d="M987.48,250.82c15.69,0,21.71,11.62,21.71,28.77v75.56l37.41-33.42a20.2,20.2,0,0,1,13.86-5.52c10.2,0,17.53,7.85,17.53,19.18,0,10.17-3.14,15.11-10.21,21.8l-20.66,18.31,23.8,35.16c5,7.85,8.11,15.7,8.11,22.38s-.52,11.34-7.58,16.28a18.77,18.77,0,0,1-11.25,3.78c-6,0-12.56-3.49-18.83-12.5l-24.86-37.78c-14.64-20.64-31.12-31.68-50.74-32V279.59C965.77,262.44,972.05,250.82,987.48,250.82ZM965.77,377c20.92,3.2,43.42,22.38,43.42,47.37,0,17.44-6.28,28.78-21.71,28.78s-21.71-11.63-21.71-28.78Z"/><path class="cls-2" d="M1103.27,402.85V323.22c0-17.15,6.27-28.77,21.71-28.77,15.69,0,21.71,11.62,21.71,28.77v79.63c0,17.15-6,28.78-21.71,28.78C1109.54,431.63,1103.27,420,1103.27,402.85Zm.52-147.35c0-13.08,8.63-25.87,21.19-25.87s21.19,12.79,21.19,25.87-8.9,25.58-21.19,25.58S1103.79,268.58,1103.79,255.5Z"/><path class="cls-2" d="M1182.65,428.68c3.4,0,19.61,4.07,32.43,4.07,8.37,0,15.17-2,15.17-7.85a5.09,5.09,0,0,0-3.66-4.94c-8.37-3.77-25.11-5.23-39.24-13.07,1.83-7.27,4.71-14,9.68-18.9a24.93,24.93,0,0,1,25.11-7.55c18.58,4.65,51.54,10.75,51.54,47.95,0,29.94-23,41.56-47.35,43.89-16,1.45-32.44-.87-43.68-4.65-10.21-3.49-15.44-10.17-16.22-15.7C1163.81,436.82,1172.7,428.68,1182.65,428.68ZM1167,370.85c0-33.72,26.68-43.6,52.06-43.6,9.94,0,40.8,2.62,46.3,13.37,2.09,4.07,3.13,7.56,3.13,10.75,0,7.27-4.7,19.77-18,19.77-5.24,0-23.81-5.23-34-3.78-14.65,2.32-31.39,17.15-32.7,37.2C1174,397.87,1167,388.28,1167,370.85Z"/><path class="cls-2" d="M1293.35,298.11h3.92V287.94c0-16.27,5.24-28.77,21.72-28.77s21.71,12.5,21.71,28.77v10.17h13.08c10.46,0,16,8.43,16,19.77s-4.7,20.05-16,20.05H1340.7c-19.62,0-36.36,13.37-43.43,35.46V337.93h-3.92c-10.72,0-16-8.72-16-20.05S1282.89,298.11,1293.35,298.11Zm23,59.29a46.58,46.58,0,0,1,24.33-8.13v27c0,9.6.78,16,2.61,19.19q2.75,5.24,10.21,5.23c9.15,0,17,3.78,17.78,14.53a11.06,11.06,0,0,1,.26,3.2,20.84,20.84,0,0,1-4.44,12.78c-5.23,5.82-14.65,7.85-22,7.85-24.06,0-40.28-9.3-45.51-36C1295.71,385.31,1302.77,367,1316.37,357.4Z"/><path class="cls-2" d="M1384.45,397a48,48,0,0,1,.26-6.1c1.31-27,14.91-52.31,42.12-52.31,14.39,0,28,8.13,35.31,24.7l1,2.33a29.64,29.64,0,0,0-8.63-1.46c-17.79,0-26.68,13.37-26.68,32.84,0,19.77,9.67,32.85,26.68,32.85,14.91,0,26.42-11.92,26.42-32.85,0-7.26,2.35-64.81-60.43-66,10.2-4.65,23.81-6.39,34-6.39,44.47,0,69.84,30.51,69.84,72.36,0,43-25.9,72.37-69.84,72.37C1409.3,469.37,1384.45,438,1384.45,397Z"/><path class="cls-2" d="M828.58,332.52c9.67-12.79,25.89-21.8,47.6-21.8,34.53,0,59.64,25.29,59.64,61.62,0,20.05-7.58,29.94-23,29.94H856c0,11.62,17,14.82,24.59,14.82,8.11,0,16.48-1.75,23-3.2a40.55,40.55,0,0,1,10.2-1.45c9.68,0,14.39,7.26,14.39,17.44,0,21.5-36.1,25.86-50,25.86-19.62,0-39.24-6.68-50.75-22.67a40.94,40.94,0,0,1-2.09-44.17c7.06-11.92,19.35-19.77,35.31-19.77h35.31c0-10.46-6.27-19.18-19.88-20.05-25.11-1.45-58.07,17.73-60.95,56.67C809.22,381.06,812.88,353.16,828.58,332.52Z"/></g></svg>