<svg xmlns="http://www.w3.org/2000/svg" viewBox="0 0 1616.59 700"><defs><style>.cls-1{fill:none;stroke-width:40px;}.cls-1,.cls-2{stroke:#fff;stroke-miterlimit:10;}.cls-2{fill:#fff;}</style></defs><g id="Artwork"><path class="cls-1" d="M597.11,353.11v0A229.64,229.64,0,0,1,378.85,582.52c-1,.06-1.91.11-2.87.15s-1.68.07-2.53.09c-1.13,0-2.27,0-3.4,0-.88,0-1.77,0-2.65,0-4.08,0-8.08-.12-12.09-.31A229.86,229.86,0,0,1,137.63,353.13v0A229.86,229.86,0,0,1,355.31,123.67c4-.19,8-.31,12.09-.31l2.65,0c6.15.06,12.21.37,18.22.93a227.86,227.86,0,0,1,121.56,48.53q6.24,4.93,12.1,10.29,3.54,3.21,6.92,6.56l2.24,2.24q2.24,2.26,4.39,4.59c2.16,2.32,4.29,4.69,6.36,7.11,1.37,1.6,2.73,3.23,4.06,4.87q3,3.69,5.86,7.54,1.5,2,3,4.07a229.38,229.38,0,0,1,24.57,44.15c.66,1.57,1.32,3.16,1.94,4.75.39,1,.79,2,1.16,3,.77,2,1.5,4,2.2,6.09a225.72,225.72,0,0,1,6.52,22.66q2.1,8.93,3.47,18.13c.06.38.11.75.16,1.12.26,1.74.49,3.5.69,5.26.2,1.59.38,3.18.54,4.79q.62,6.18.9,12.47Q597.11,347.8,597.11,353.11Z"/><path class="cls-1" d="M597.11,353.11v0A229.64,229.64,0,0,1,378.85,582.52c-3-1.71-5.9-3.45-8.8-5.28l-2.65-1.72c-.06,0-.2-.13-.32-.19a261.18,261.18,0,0,1-119.4-219.27v-2.95a260,260,0,0,1,46.95-146.48,263.53,263.53,0,0,1,72.77-70.17l2.65-1.67c.52-.32,1-.64,1.54-.94,5.41-3.43,11-6.55,16.68-9.54a261.95,261.95,0,0,1,190.64-19.84,258,258,0,0,1-69.08,68.37q6.24,4.93,12.1,10.29,3.54,3.21,6.92,6.56l2.24,2.24c1.48,1.5,2.95,3,4.39,4.59,2.16,2.32,4.29,4.69,6.36,7.11,1.37,1.6,2.73,3.22,4.06,4.87q3,3.69,5.86,7.54,1.5,2,3,4.07a229.38,229.38,0,0,1,24.57,44.15c.66,1.57,1.31,3.16,1.94,4.75.39,1,.79,2,1.16,3,.76,2,1.49,4,2.2,6.09a225.72,225.72,0,0,1,6.52,22.66q2.1,8.93,3.47,18.13c.06.38.11.75.16,1.12.26,1.75.49,3.5.69,5.26.2,1.59.38,3.18.54,4.79q.62,6.18.9,12.47Q597.11,347.8,597.11,353.11Z"/><path class="cls-1" d="M509.83,533.35a228.22,228.22,0,0,1-131,49.17c-1,.06-1.91.11-2.87.15s-1.68.07-2.53.09c-1.13,0-2.27,0-3.4,0-.88,0-1.77,0-2.65,0-4.08,0-8.08-.12-12.09-.31a264.91,264.91,0,0,1-205.6,23.85,259.63,259.63,0,0,1,73.92-74.11,257.41,257.41,0,0,1,142.31-42.69h1.46l2.65,0a257.28,257.28,0,0,1,139.78,43.75Z"/><line class="cls-1" x1="370.05" y1="123.37" x2="370.05" y2="582.85"/><path class="cls-1" d="M488.52,353.11v0A262.19,262.19,0,0,1,443,501.29a264.8,264.8,0,0,1-73,72.12l-2.65,1.73c-.13.06-.2.19-.32.19-3.88,2.54-7.76,4.9-11.77,7.19a264.91,264.91,0,0,1-205.6,23.85,259.63,259.63,0,0,1,73.92-74.11,228.92,228.92,0,0,1-86-179.13v0A229.86,229.86,0,0,1,355.31,123.67c4.07,2.36,8.15,4.84,12.09,7.38.88.56,1.77,1.15,2.65,1.75l1.54,1A265.5,265.5,0,0,1,443,204.9,262.49,262.49,0,0,1,488.52,353.11Z"/><path class="cls-1" d="M578.91,104.47a258,258,0,0,1-69.08,68.37A259.1,259.1,0,0,1,443,204.9a258.31,258.31,0,0,1-73,11.69l-2.65,0h-1.46a258.79,258.79,0,0,1-71.31-10,256.84,256.84,0,0,1-71-32.7,228,228,0,0,1,131.68-50.26c4-.19,8-.31,12.09-.31l2.65,0c6.15.06,12.21.37,18.22.93a261.95,261.95,0,0,1,190.64-19.84Z"/><line class="cls-1" x1="137.63" y1="353.11" x2="597.11" y2="353.11"/><path class="cls-2" d="M713.66,250.23H812.8c7.85,0,13.6,2,17.53,6.39q6.27,6.11,6.27,18.31c0,8.43-2.09,14.53-6.27,18.6-3.93,4.36-9.68,6.4-17.53,6.4H790c-32.43.87-45.51,16.56-49.7,36.91V299.93H713.66c-7.85,0-13.6-2-17.53-6.4-4.18-4.07-6.28-10.17-6.28-18.6C689.85,257.78,699,250.23,713.66,250.23ZM740.34,421.7V361.83c0-31.39,17-48.83,45.52-50V421.7c0,17.15-5.76,31.1-22.5,31.1C746.36,452.8,740.34,438.85,740.34,421.7Z"/><path class="cls-2" d="M1000.86,260c15.7,0,21.72,11.62,21.72,28.77v75.57L1060,331a20.24,20.24,0,0,1,13.87-5.52c10.2,0,17.52,7.85,17.52,19.18,0,10.17-3.14,15.12-10.2,21.8l-20.66,18.31,23.8,35.17c5,7.84,8.11,15.69,8.11,22.38s-.52,11.33-7.59,16.27a18.73,18.73,0,0,1-11.25,3.78c-6,0-12.55-3.49-18.83-12.5L1029.9,412c-14.65-20.64-31.13-31.68-50.75-32V288.81C979.15,271.66,985.43,260,1000.86,260ZM979.15,386.17c20.93,3.2,43.43,22.38,43.43,47.38,0,17.44-6.28,28.77-21.72,28.77s-21.71-11.63-21.71-28.77Z"/><path class="cls-2" d="M1116.65,412.08V332.44c0-17.15,6.28-28.77,21.71-28.77,15.7,0,21.72,11.62,21.72,28.77v79.64c0,17.14-6,28.77-21.72,28.77C1122.93,440.85,1116.65,429.22,1116.65,412.08Zm.53-147.36c0-13.08,8.63-25.86,21.18-25.86s21.19,12.78,21.19,25.86-8.89,25.58-21.19,25.58S1117.18,277.8,1117.18,264.72Z"/><path class="cls-2" d="M1196,437.91c3.4,0,19.62,4.06,32.44,4.06,8.37,0,15.17-2,15.17-7.84a5.08,5.08,0,0,0-3.66-4.94c-8.37-3.78-25.12-5.24-39.24-13.08,1.83-7.27,4.71-13.95,9.68-18.89a24.91,24.91,0,0,1,25.11-7.56c18.57,4.65,51.53,10.75,51.53,47.95,0,29.94-23,41.57-47.34,43.89-16,1.45-32.44-.87-43.69-4.65-10.2-3.49-15.43-10.17-16.22-15.69C1177.2,446,1186.09,437.91,1196,437.91Zm-15.69-57.84c0-33.71,26.68-43.6,52.05-43.6,9.94,0,40.81,2.62,46.3,13.37,2.09,4.07,3.14,7.56,3.14,10.76,0,7.26-4.71,19.76-18,19.76-5.23,0-23.8-5.23-34-3.78-14.64,2.33-31.39,17.15-32.69,37.2C1187.4,407.1,1180.34,397.51,1180.34,380.07Z"/><path class="cls-2" d="M1306.74,307.34h3.92V297.16c0-16.27,5.23-28.77,21.71-28.77s21.71,12.5,21.71,28.77v10.18h13.08c10.47,0,16,8.43,16,19.76s-4.71,20-16,20h-13.08c-19.62,0-36.36,13.37-43.42,35.46V347.15h-3.92c-10.73,0-16-8.71-16-20S1296.27,307.34,1306.74,307.34Zm23,59.29a46.58,46.58,0,0,1,24.32-8.14v27c0,9.59.79,16,2.62,19.18q2.74,5.24,10.2,5.23c9.16,0,17,3.78,17.79,14.53a11.09,11.09,0,0,1,.26,3.2,20.9,20.9,0,0,1-4.45,12.79c-5.23,5.81-14.65,7.84-22,7.84-24.07,0-40.28-9.3-45.52-36C1309.09,394.53,1316.15,376.22,1329.76,366.63Z"/><path class="cls-2" d="M1397.84,406.23a48,48,0,0,1,.26-6.11c1.31-27,14.91-52.31,42.11-52.31,14.39,0,28,8.14,35.32,24.7l1,2.33a30,30,0,0,0-8.64-1.45c-17.78,0-26.68,13.36-26.68,32.84,0,19.76,9.68,32.84,26.68,32.84,14.91,0,26.42-11.92,26.42-32.84,0-7.27,2.36-64.81-60.42-66,10.2-4.65,23.8-6.39,34-6.39,44.47,0,69.85,30.52,69.85,72.37,0,43-25.9,72.37-69.85,72.37C1422.69,478.6,1397.84,447.21,1397.84,406.23Z"/><path class="cls-2" d="M842,341.75c9.68-12.79,25.9-21.8,47.61-21.8,34.53,0,59.64,25.28,59.64,61.61,0,20.06-7.59,29.94-23,29.94H869.43c0,11.62,17,14.82,24.59,14.82,8.1,0,16.48-1.74,23-3.2a40.43,40.43,0,0,1,10.2-1.45c9.68,0,14.38,7.27,14.38,17.44,0,21.51-36.09,25.87-50,25.87-19.62,0-39.24-6.69-50.75-22.67a41,41,0,0,1-2.09-44.18c7.06-11.92,19.36-19.77,35.32-19.77h35.31c0-10.46-6.28-19.18-19.88-20.05-25.11-1.45-58.07,17.73-61,56.68C822.6,390.28,826.27,362.38,842,341.75Z"/></g></svg>