<svg xmlns="http://www.w3.org/2000/svg" viewBox="0 0 1616.59 1500"><defs><style>.cls-1{fill:none;stroke:#fff;stroke-miterlimit:10;stroke-width:60px;}.cls-2{fill:#fff;}</style></defs><g id="Artwork"><path class="cls-1" d="M1301.22,634.22v0c0,158.69-74.11,300.1-189.67,391.62a495.84,495.84,0,0,1-284.64,106.86c-2.07.13-4.15.25-6.22.33-1.84.07-3.66.15-5.5.19-2.47.06-4.93.12-7.39.12-1.92,0-3.84,0-5.76,0-8.86,0-17.56-.28-26.27-.68a495.42,495.42,0,0,1-286.15-109.22c-114-91.37-186.89-231.81-186.89-389.26v0a499.51,499.51,0,0,1,473-498.6c8.71-.41,17.41-.68,26.27-.68,1.92,0,3.84,0,5.76,0q20,.21,39.58,2a495,495,0,0,1,264.17,105.45q13.56,10.74,26.31,22.36,7.68,7,15,14.24c1.63,1.61,3.26,3.24,4.87,4.89q4.85,4.91,9.55,10,7,7.56,13.81,15.45,4.47,5.24,8.82,10.59,6.51,8,12.73,16.38,3.27,4.4,6.44,8.84a499.1,499.1,0,0,1,53.41,96c1.43,3.41,2.85,6.86,4.2,10.31.86,2.19,1.71,4.38,2.52,6.57q2.51,6.57,4.79,13.22a489.54,489.54,0,0,1,14.17,49.24q4.55,19.42,7.52,39.41c.14.82.26,1.63.35,2.45q.86,5.67,1.52,11.41.63,5.18,1.16,10.41,1.34,13.44,2,27.1Q1301.22,622.66,1301.22,634.22Z"/><path class="cls-1" d="M1301.22,634.22v0c0,158.69-74.11,300.1-189.67,391.62a495.84,495.84,0,0,1-284.64,106.86c-6.45-3.71-12.81-7.51-19.11-11.48-1.92-1.24-3.84-2.48-5.76-3.74-.13,0-.42-.27-.7-.41a567.55,567.55,0,0,1-259.47-476.5v-6.39a565.33,565.33,0,0,1,102-318.33A572.72,572.72,0,0,1,802,163.42l5.76-3.65c1.12-.69,2.23-1.37,3.35-2,11.75-7.46,23.92-14.23,36.23-20.72a569.32,569.32,0,0,1,414.29-43.14,560.1,560.1,0,0,1-150.12,148.59q13.56,10.74,26.31,22.36,7.68,7,15,14.24c1.63,1.61,3.26,3.24,4.87,4.89q4.83,4.89,9.55,10,7,7.56,13.81,15.45,4.47,5.2,8.82,10.59,6.51,8,12.73,16.38,3.27,4.4,6.44,8.84a499.1,499.1,0,0,1,53.41,96c1.43,3.41,2.83,6.86,4.2,10.31.86,2.19,1.71,4.38,2.52,6.57q2.48,6.57,4.79,13.22a489.54,489.54,0,0,1,14.17,49.24q4.55,19.42,7.52,39.41c.14.82.26,1.63.35,2.45.57,3.8,1.07,7.59,1.52,11.41q.63,5.18,1.16,10.41,1.34,13.44,2,27.1Q1301.22,622.66,1301.22,634.22Z"/><path class="cls-1" d="M1111.55,1025.88a495.84,495.84,0,0,1-284.64,106.86c-2.07.13-4.15.25-6.22.33-1.84.07-3.66.15-5.5.19-2.47.06-4.93.12-7.39.12-1.92,0-3.84,0-5.76,0-8.86,0-17.56-.28-26.27-.68A575.69,575.69,0,0,1,329,1184.57a564,564,0,0,1,160.64-161,559,559,0,0,1,309.24-92.76H802l5.76.06a558.9,558.9,0,0,1,303.75,95.06Z"/><line class="cls-1" x1="807.79" y1="134.97" x2="807.79" y2="1133.45"/><path class="cls-1" d="M1065.24,634.22v0c0,119.29-36.35,230.3-98.85,322A575.24,575.24,0,0,1,807.8,1112.94c-1.92,1.26-3.84,2.52-5.76,3.76-.29.14-.42.41-.7.41-8.43,5.53-16.86,10.64-25.57,15.63A575.69,575.69,0,0,1,329,1184.57a564,564,0,0,1,160.64-161c-114-91.37-186.89-231.81-186.89-389.26v0a499.51,499.51,0,0,1,473-498.6c8.84,5.12,17.7,10.51,26.27,16,1.92,1.22,3.84,2.5,5.76,3.8l3.35,2.29A576.82,576.82,0,0,1,966.39,312.15,570.39,570.39,0,0,1,1065.24,634.22Z"/><path class="cls-1" d="M1261.67,93.88a560.1,560.1,0,0,1-150.12,148.59,563.88,563.88,0,0,1-145.16,69.68A561.7,561.7,0,0,1,807.8,337.54l-5.76.06h-3.18a562.18,562.18,0,0,1-155-21.71,558,558,0,0,1-154.27-71A495.49,495.49,0,0,1,775.77,135.62c8.71-.41,17.41-.68,26.27-.68,1.92,0,3.84,0,5.76,0q20,.21,39.58,2a569.32,569.32,0,0,1,414.29-43.14Z"/><line class="cls-1" x1="302.74" y1="634.21" x2="1301.22" y2="634.21"/><path class="cls-2" d="M489.08,1270.74h81.3c6.43,0,11.15,1.66,14.37,5.24q5.14,5,5.15,15c0,6.91-1.72,11.92-5.15,15.26-3.22,3.57-7.94,5.24-14.37,5.24H551.72c-26.6.71-37.33,13.58-40.76,30.27v-30.27H489.08c-6.43,0-11.15-1.67-14.37-5.24-3.43-3.34-5.15-8.35-5.15-15.26C469.56,1276.93,477.07,1270.74,489.08,1270.74ZM511,1411.35v-49.1c0-25.74,13.94-40,37.32-41v90.09c0,14.06-4.72,25.5-18.44,25.5C515.89,1436.85,511,1425.41,511,1411.35Z"/><path class="cls-2" d="M724.59,1278.78c12.87,0,17.81,9.53,17.81,23.59v62l30.67-27.41a16.59,16.59,0,0,1,11.37-4.53c8.37,0,14.37,6.44,14.37,15.73,0,8.34-2.57,12.4-8.36,17.88l-17,15L793,1409.86c4.08,6.43,6.65,12.87,6.65,18.35s-.43,9.3-6.22,13.35a15.41,15.41,0,0,1-9.22,3.09c-4.94,0-10.3-2.86-15.45-10.24l-20.38-31c-12-16.92-25.52-26-41.61-26.21v-74.84C706.79,1288.31,711.94,1278.78,724.59,1278.78Zm-17.8,103.43c17.16,2.63,35.61,18.35,35.61,38.85,0,14.3-5.15,23.59-17.81,23.59s-17.8-9.53-17.8-23.59Z"/><path class="cls-2" d="M819.54,1403.45v-65.3c0-14.06,5.15-23.59,17.81-23.59,12.87,0,17.8,9.53,17.8,23.59v65.3c0,14.06-4.93,23.6-17.8,23.6C824.69,1427.05,819.54,1417.51,819.54,1403.45Zm.43-120.83c0-10.72,7.08-21.21,17.38-21.21s17.37,10.49,17.37,21.21-7.29,21-17.37,21S820,1293.35,820,1282.62Z"/><path class="cls-2" d="M884.63,1424.63c2.79,0,16.09,3.34,26.6,3.34,6.87,0,12.44-1.67,12.44-6.43a4.18,4.18,0,0,0-3-4.06c-6.86-3.09-20.59-4.29-32.18-10.72,1.51-6,3.87-11.44,7.94-15.49a20.45,20.45,0,0,1,20.59-6.2c15.23,3.82,42.26,8.82,42.26,39.33,0,24.54-18.88,34.08-38.82,36-13.09,1.19-26.6-.71-35.83-3.81-8.36-2.86-12.65-8.34-13.3-12.87C869.19,1431.31,876.48,1424.63,884.63,1424.63Zm-12.87-47.42c0-27.65,21.88-35.75,42.69-35.75,8.15,0,33.46,2.14,38,11a19.63,19.63,0,0,1,2.57,8.82c0,6-3.86,16.21-14.8,16.21-4.29,0-19.52-4.29-27.89-3.1-12,1.9-25.74,14.06-26.81,30.5C877.55,1399.37,871.76,1391.51,871.76,1377.21Z"/><path class="cls-2" d="M975.41,1317.57h3.22v-8.35c0-13.34,4.29-23.59,17.81-23.59s17.8,10.25,17.8,23.59v8.35H1025c8.58,0,13.09,6.91,13.09,16.2s-3.86,16.45-13.09,16.45h-10.72c-16.09,0-29.82,11-35.61,29.07v-29.07h-3.22c-8.79,0-13.08-7.15-13.08-16.45S966.83,1317.57,975.41,1317.57Zm18.88,48.61a38.25,38.25,0,0,1,20-6.67v22.17c0,7.86.64,13.1,2.14,15.73,1.51,2.86,4.29,4.29,8.37,4.29,7.51,0,13.94,3.09,14.59,11.91a9.22,9.22,0,0,1,.21,2.62,17.14,17.14,0,0,1-3.65,10.49c-4.29,4.77-12,6.43-18,6.43-19.74,0-33-7.62-37.33-29.55C977.34,1389.06,983.14,1374.05,994.29,1366.18Z"/><path class="cls-2" d="M1050.12,1398.66a40,40,0,0,1,.21-5c1.08-22.16,12.23-42.9,34.54-42.9,11.8,0,23,6.68,29,20.26l.85,1.91a24.21,24.21,0,0,0-7.07-1.19c-14.59,0-21.88,11-21.88,26.93,0,16.2,7.93,26.93,21.88,26.93,12.22,0,21.66-9.77,21.66-26.93,0-6,1.93-53.15-49.55-54.1,8.37-3.82,19.52-5.25,27.89-5.25,36.46,0,57.27,25,57.27,59.35,0,35.27-21.24,59.34-57.27,59.34C1070.5,1458,1050.12,1432.26,1050.12,1398.66Z"/><path class="cls-2" d="M594.29,1345.78c7.94-10.48,21.24-17.87,39-17.87,28.31,0,48.91,20.73,48.91,50.52,0,16.45-6.22,24.55-18.88,24.55H616.81c0,9.53,14,12.15,20.17,12.15,6.65,0,13.51-1.43,18.87-2.62a33.34,33.34,0,0,1,8.37-1.19c7.93,0,11.8,6,11.8,14.3,0,17.64-29.61,21.21-41,21.21-16.09,0-32.18-5.48-41.62-18.59a33.57,33.57,0,0,1-1.71-36.22c5.79-9.77,15.87-16.21,28.95-16.21h29c0-8.58-5.15-15.73-16.3-16.44-20.59-1.2-47.62,14.53-50,46.47C578.42,1385.58,581.42,1362.7,594.29,1345.78Z"/></g></svg>