<svg xmlns="http://www.w3.org/2000/svg" viewBox="0 0 779.13 779.13"><defs><style>.cls-1{fill:none;stroke:#1b1464;stroke-miterlimit:10;stroke-width:40px;}</style></defs><g id="Artwork"><path class="cls-1" d="M677.69,389.39v0A276.85,276.85,0,0,1,414.56,666c-1.15.08-2.3.14-3.45.19s-2,.08-3.06.1c-1.36,0-2.73.07-4.09.07-1.07,0-2.13,0-3.2,0-4.91,0-9.74-.15-14.57-.38A277.12,277.12,0,0,1,123.76,389.42v0a277.12,277.12,0,0,1,262.43-276.6c4.83-.22,9.66-.37,14.57-.37l3.2,0q11.12.11,22,1.13a274.6,274.6,0,0,1,146.55,58.5q7.51,6,14.59,12.4,4.26,3.87,8.33,7.9c.91.9,1.81,1.8,2.7,2.71,1.8,1.82,3.56,3.66,5.31,5.53,2.6,2.8,5.16,5.66,7.65,8.57q2.49,2.91,4.9,5.88c2.4,3,4.76,6,7.06,9.08,1.21,1.63,2.4,3.26,3.57,4.91a276.69,276.69,0,0,1,29.63,53.23c.8,1.89,1.58,3.81,2.33,5.72.48,1.22,1,2.43,1.4,3.65.93,2.43,1.81,4.87,2.66,7.33a275.18,275.18,0,0,1,7.86,27.32q2.52,10.77,4.17,21.86c.08.45.14.91.2,1.36.31,2.09.59,4.21.83,6.33.24,1.92.46,3.84.65,5.78.49,5,.86,10,1.09,15Q677.69,383,677.69,389.39Z"/><path class="cls-1" d="M677.69,389.39v0A276.85,276.85,0,0,1,414.56,666c-3.58-2.05-7.11-4.16-10.6-6.36l-3.2-2.08c-.07,0-.23-.15-.38-.23A314.82,314.82,0,0,1,256.43,392.94v-3.55A313.56,313.56,0,0,1,313,212.8a317.73,317.73,0,0,1,87.73-84.59l3.2-2c.62-.38,1.23-.76,1.86-1.13,6.51-4.14,13.27-7.89,20.1-11.49A315.78,315.78,0,0,1,655.75,89.64a311,311,0,0,1-83.28,82.43q7.51,6,14.59,12.4,4.26,3.87,8.33,7.9c.91.9,1.81,1.8,2.7,2.71,1.79,1.81,3.56,3.66,5.31,5.53,2.6,2.8,5.16,5.66,7.65,8.57q2.49,2.9,4.9,5.88c2.4,3,4.76,6,7.06,9.08,1.21,1.63,2.4,3.26,3.57,4.91a276.69,276.69,0,0,1,29.63,53.23c.8,1.89,1.57,3.81,2.33,5.72.48,1.22,1,2.43,1.4,3.65.92,2.43,1.8,4.87,2.66,7.33a275.18,275.18,0,0,1,7.86,27.32q2.52,10.77,4.17,21.86c.08.45.14.91.2,1.36q.46,3.15.83,6.33c.24,1.92.46,3.84.65,5.78.49,5,.86,10,1.09,15Q677.69,383,677.69,389.39Z"/><path class="cls-1" d="M572.47,606.67A275,275,0,0,1,414.56,666c-1.15.08-2.3.14-3.45.19s-2,.08-3.06.1c-1.36,0-2.73.07-4.09.07-1.07,0-2.13,0-3.2,0-4.91,0-9.74-.15-14.57-.38a319.35,319.35,0,0,1-247.87,28.76,313,313,0,0,1,89.13-89.35A310.27,310.27,0,0,1,399,553.9h1.76l3.2,0a310,310,0,0,1,168.51,52.73Z"/><line class="cls-1" x1="403.95" y1="112.43" x2="403.95" y2="666.35"/><path class="cls-1" d="M546.77,389.39v0A316,316,0,0,1,491.94,568a319.23,319.23,0,0,1-88,87l-3.2,2.09c-.16.07-.23.22-.38.22-4.68,3.07-9.36,5.91-14.19,8.67a319.35,319.35,0,0,1-247.87,28.76,313,313,0,0,1,89.13-89.35A276,276,0,0,1,123.76,389.42v0a277.12,277.12,0,0,1,262.43-276.6c4.9,2.84,9.82,5.83,14.57,8.9,1.07.67,2.13,1.38,3.2,2.1.62.42,1.23.85,1.86,1.27a320.21,320.21,0,0,1,86.12,85.66A316.44,316.44,0,0,1,546.77,389.39Z"/><path class="cls-1" d="M655.75,89.64a311,311,0,0,1-83.28,82.43,312.61,312.61,0,0,1-80.53,38.65,311.49,311.49,0,0,1-88,14.09l-3.2,0H399a311.71,311.71,0,0,1-86-12,309.31,309.31,0,0,1-85.58-39.42,274.89,274.89,0,0,1,158.74-60.59c4.83-.22,9.66-.37,14.57-.37l3.2,0q11.12.11,22,1.13A315.78,315.78,0,0,1,655.75,89.64Z"/><line class="cls-1" x1="123.77" y1="389.39" x2="677.68" y2="389.39"/></g></svg>