<svg xmlns="http://www.w3.org/2000/svg" viewBox="0 0 1616.59 700"><defs><style>.cls-1{fill:#fff;}</style></defs><g id="Artwork"><path class="cls-1" d="M152.43,163.17H317.29c13,0,22.62,3.38,29.14,10.63q10.44,10.15,10.44,30.45c0,14-3.48,24.17-10.44,30.93-6.52,7.25-16.09,10.63-29.14,10.63H279.45c-53.94,1.45-75.69,27.55-82.65,61.38V245.81H152.43c-13.05,0-22.62-3.38-29.15-10.63-7-6.76-10.44-16.91-10.44-30.93C112.84,175.73,128.07,163.17,152.43,163.17ZM196.8,448.32V348.76c0-52.2,28.27-81.2,75.69-83.13V448.32c0,28.51-9.57,51.71-37.41,51.71C206.8,500,196.8,476.83,196.8,448.32Z"/><path class="cls-1" d="M630,179.48c26.1,0,36.1,19.33,36.1,47.85V353l62.21-55.58a33.64,33.64,0,0,1,23-9.18c17,0,29.15,13,29.15,31.89,0,16.92-5.22,25.14-17,36.25l-34.36,30.45,39.58,58.48c8.27,13.05,13.49,26.1,13.49,37.22s-.87,18.85-12.62,27.06a31.2,31.2,0,0,1-18.7,6.28c-10,0-20.88-5.8-31.32-20.78l-41.33-62.83c-24.36-34.31-51.76-52.68-84.39-53.16V227.33C593.92,198.81,604.36,179.48,630,179.48ZM593.92,389.24c34.8,5.31,72.21,37.21,72.21,78.78,0,29-10.44,47.84-36.1,47.84S593.92,496.53,593.92,468Z"/><path class="cls-1" d="M822.58,432.31V299.88c0-28.51,10.44-47.84,36.1-47.84,26.1,0,36.11,19.33,36.11,47.84V432.31c0,28.51-10,47.85-36.11,47.85C833,480.16,822.58,460.82,822.58,432.31Zm.87-245c0-21.75,14.35-43,35.23-43s35.24,21.26,35.24,43-14.79,42.53-35.24,42.53S823.45,209,823.45,187.27Z"/><path class="cls-1" d="M954.58,475.26c5.65,0,32.62,6.77,53.94,6.77,13.92,0,25.23-3.38,25.23-13,0-3.87-2.18-6.77-6.09-8.22-13.92-6.28-41.76-8.7-65.25-21.74,3-12.09,7.83-23.2,16.09-31.42A41.48,41.48,0,0,1,1020.26,395c30.89,7.74,85.7,17.89,85.7,79.75,0,49.78-38.28,69.11-78.74,73-26.53,2.41-53.94-1.45-72.64-7.73-17-5.8-25.67-16.92-27-26.1C923.26,488.8,938.05,475.26,954.58,475.26Zm-26.1-96.17c0-56.07,44.37-72.5,86.56-72.5,16.53,0,67.86,4.35,77,22.23,3.48,6.77,5.22,12.57,5.22,17.88,0,12.09-7.83,32.87-30,32.87-8.7,0-39.58-8.7-56.55-6.28-24.36,3.86-52.2,28.51-54.37,61.86C940.22,424,928.48,408.08,928.48,379.09Z"/><path class="cls-1" d="M1138.67,258.14h6.53V241.22c0-27.06,8.7-47.85,36.1-47.85s36.11,20.79,36.11,47.85v16.92h21.75c17.4,0,26.53,14,26.53,32.86s-7.83,33.35-26.53,33.35h-21.75c-32.63,0-60.47,22.23-72.21,59v-59h-6.53c-17.83,0-26.53-14.5-26.53-33.35S1121.27,258.14,1138.67,258.14ZM1177,356.73c11.75-8.21,25.23-12.56,40.46-13.53v44.95c0,16,1.3,26.58,4.35,31.9q4.56,8.7,17,8.7c15.23,0,28.28,6.28,29.58,24.16a18.11,18.11,0,0,1,.44,5.32,34.72,34.72,0,0,1-7.4,21.26c-8.7,9.67-24.36,13.05-36.54,13.05-40,0-67-15.47-75.69-59.93C1142.59,403.13,1154.33,372.68,1177,356.73Z"/><path class="cls-1" d="M1290.17,422.59a80.08,80.08,0,0,1,.43-10.15c2.18-44.95,24.8-87,70-87,23.92,0,46.54,13.53,58.72,41.08l1.74,3.87a49.63,49.63,0,0,0-14.35-2.42c-29.58,0-44.37,22.23-44.37,54.62,0,32.86,16.09,54.61,44.37,54.61,24.79,0,43.93-19.82,43.93-54.61,0-12.09,3.92-107.78-100.48-109.72,17-7.73,39.58-10.63,56.55-10.63,74,0,116.14,50.75,116.14,120.35,0,71.52-43.06,120.34-116.14,120.34C1331.49,542.93,1290.17,490.73,1290.17,422.59Z"/><path class="cls-1" d="M365.78,315.36c16.1-21.27,43.07-36.25,79.17-36.25,57.42,0,99.18,42.05,99.18,102.46,0,33.35-12.61,49.78-38.28,49.78H411.46c0,19.33,28.27,24.65,40.89,24.65,13.48,0,27.4-2.9,38.28-5.32a67.28,67.28,0,0,1,17-2.41c16.1,0,23.93,12.08,23.93,29,0,35.77-60,43-83.09,43-32.62,0-65.25-11.12-84.39-37.7-15.22-21.26-17-50.75-3.48-73.46,11.75-19.82,32.19-32.87,58.73-32.87H478c0-17.4-10.44-31.9-33.06-33.35-41.76-2.41-96.57,29.49-101.35,94.25C333.59,396.07,339.68,349.67,365.78,315.36Z"/><path class="cls-1" d="M154,160.64H318.87c13.05,0,22.62,3.38,29.15,10.63q10.44,10.15,10.44,30.45c0,14-3.48,24.17-10.44,30.93-6.53,7.25-16.1,10.64-29.15,10.64H281c-53.94,1.45-75.69,27.55-82.65,61.38V243.29H154c-13,0-22.62-3.39-29.14-10.64-7-6.76-10.44-16.91-10.44-30.93C114.43,173.21,129.65,160.64,154,160.64Zm44.37,285.15V346.23c0-52.2,28.28-81.19,75.69-83.13V445.79c0,28.52-9.57,51.72-37.41,51.72C208.39,497.51,198.38,474.31,198.38,445.79Z"/><path class="cls-1" d="M631.61,177c26.1,0,36.11,19.33,36.11,47.84V350.46l62.2-55.58A33.65,33.65,0,0,1,753,285.7c17,0,29.14,13.05,29.14,31.9,0,16.91-5.22,25.13-17,36.25l-34.37,30.44,39.59,58.48c8.26,13.05,13.48,26.1,13.48,37.22s-.87,18.85-12.61,27.06a31.22,31.22,0,0,1-18.71,6.29c-10,0-20.88-5.8-31.32-20.79L679.9,429.72c-24.36-34.31-51.77-52.68-84.39-53.16V224.8C595.51,196.29,606,177,631.61,177Zm-36.1,209.75c34.8,5.32,72.21,37.21,72.21,78.78,0,29-10.44,47.85-36.11,47.85s-36.1-19.34-36.1-47.85Z"/><path class="cls-1" d="M824.16,429.78V297.36c0-28.52,10.44-47.85,36.11-47.85,26.1,0,36.1,19.33,36.1,47.85V429.78c0,28.52-10,47.85-36.1,47.85C834.6,477.63,824.16,458.3,824.16,429.78Zm.87-245c0-21.75,14.36-43,35.24-43s35.23,21.27,35.23,43-14.79,42.53-35.23,42.53S825,206.5,825,184.75Z"/><path class="cls-1" d="M956.16,472.74c5.66,0,32.63,6.76,53.94,6.76,13.92,0,25.23-3.38,25.23-13.05,0-3.86-2.17-6.76-6.09-8.21-13.92-6.29-41.76-8.7-65.25-21.75,3-12.08,7.83-23.2,16.1-31.42a41.45,41.45,0,0,1,41.76-12.56c30.88,7.73,85.69,17.88,85.69,79.74,0,49.78-38.28,69.12-78.73,73-26.54,2.42-53.94-1.45-72.65-7.73-17-5.8-25.66-16.92-27-26.1C924.84,486.27,939.63,472.74,956.16,472.74Zm-26.1-96.18c0-56.06,44.37-72.5,86.57-72.5,16.53,0,67.86,4.35,77,22.23,3.48,6.77,5.22,12.57,5.22,17.89,0,12.08-7.83,32.86-30,32.86-8.7,0-39.59-8.7-56.55-6.28-24.36,3.87-52.2,28.51-54.38,61.86C941.81,421.51,930.06,405.56,930.06,376.56Z"/><path class="cls-1" d="M1140.26,255.61h6.52V238.69c0-27.06,8.7-47.84,36.11-47.84s36.1,20.78,36.1,47.84v16.92h21.75c17.4,0,26.54,14,26.54,32.87s-7.83,33.34-26.54,33.34H1219c-32.62,0-60.46,22.24-72.21,59v-59h-6.52c-17.84,0-26.54-14.5-26.54-33.34S1122.86,255.61,1140.26,255.61Zm38.28,98.6c11.74-8.22,25.23-12.57,40.45-13.54v44.95c0,15.95,1.31,26.58,4.35,31.9q4.58,8.7,17,8.7c15.22,0,28.27,6.28,29.58,24.16a18.52,18.52,0,0,1,.43,5.32,34.77,34.77,0,0,1-7.39,21.26c-8.7,9.67-24.36,13.05-36.54,13.05-40,0-67-15.46-75.69-59.93C1144.17,400.6,1155.92,370.15,1178.54,354.21Z"/><path class="cls-1" d="M1291.75,420.06a78.27,78.27,0,0,1,.44-10.15c2.17-45,24.79-87,70-87,23.93,0,46.55,13.54,58.73,41.08l1.74,3.87a49.7,49.7,0,0,0-14.36-2.42c-29.58,0-44.37,22.24-44.37,54.62,0,32.86,16.1,54.61,44.37,54.61,24.8,0,43.94-19.81,43.94-54.61,0-12.09,3.91-107.78-100.49-109.71,17-7.74,39.59-10.64,56.55-10.64,74,0,116.15,50.75,116.15,120.35,0,71.53-43.07,120.34-116.15,120.34C1333.08,540.4,1291.75,488.2,1291.75,420.06Z"/><path class="cls-1" d="M367.37,312.83c16.09-21.27,43.06-36.25,79.17-36.25,57.42,0,99.18,42.05,99.18,102.46,0,33.35-12.62,49.78-38.28,49.78H413c0,19.33,28.28,24.65,40.89,24.65,13.49,0,27.41-2.9,38.28-5.32a67.35,67.35,0,0,1,17-2.41c16.09,0,23.92,12.08,23.92,29,0,35.76-60,43-83.08,43-32.63,0-65.25-11.11-84.39-37.7-15.23-21.26-17-50.74-3.48-73.46,11.74-19.82,32.19-32.87,58.72-32.87H479.6c0-17.39-10.44-31.89-33.06-33.34C404.78,338,350,369.86,345.18,434.62,335.18,393.54,341.27,347.14,367.37,312.83Z"/></g></svg>