<svg xmlns="http://www.w3.org/2000/svg" viewBox="0 0 779.13 779.13"><defs><style>.cls-1{fill:none;stroke:#231f20;stroke-miterlimit:10;stroke-width:40px;}</style></defs><g id="Artwork"><path class="cls-1" d="M662.71,384v0A276.85,276.85,0,0,1,399.58,660.56q-1.72.12-3.45.18c-1,0-2,.09-3.05.11-1.37,0-2.73.07-4.1.07-1.06,0-2.13,0-3.19,0-4.92,0-9.75-.15-14.58-.38A277.11,277.11,0,0,1,108.79,384v0A277.11,277.11,0,0,1,371.21,107.4c4.83-.22,9.66-.37,14.58-.37l3.19,0q11.11.11,22,1.13a274.57,274.57,0,0,1,146.55,58.5q7.51,6,14.59,12.4,4.26,3.87,8.34,7.9l2.7,2.71q2.68,2.73,5.3,5.53,3.9,4.2,7.66,8.57c1.65,1.94,3.29,3.9,4.89,5.87,2.41,3,4.76,6,7.06,9.09,1.21,1.63,2.4,3.26,3.58,4.91a276.12,276.12,0,0,1,29.62,53.23c.8,1.89,1.58,3.81,2.34,5.72.47,1.22.94,2.43,1.4,3.65q1.38,3.64,2.65,7.33a272.51,272.51,0,0,1,7.86,27.32q2.52,10.77,4.18,21.86c.07.45.14.9.19,1.36.31,2.09.59,4.21.84,6.33.23,1.91.45,3.84.64,5.78.5,5,.86,10,1.09,15Q662.71,377.6,662.71,384Z"/><path class="cls-1" d="M662.71,384v0A276.85,276.85,0,0,1,399.58,660.56c-3.58-2-7.11-4.16-10.6-6.37-1.06-.68-2.13-1.37-3.19-2.07-.08,0-.24-.15-.39-.23A314.82,314.82,0,0,1,241.45,387.55V384a313.63,313.63,0,0,1,56.6-176.59,317.77,317.77,0,0,1,87.74-84.59l3.19-2c.62-.39,1.24-.76,1.86-1.13,6.52-4.14,13.27-7.89,20.1-11.49A315.78,315.78,0,0,1,640.77,84.25a310.86,310.86,0,0,1-83.28,82.43q7.51,6,14.59,12.4,4.26,3.87,8.34,7.9l2.7,2.71c1.78,1.81,3.56,3.66,5.3,5.53q3.9,4.2,7.66,8.57c1.65,1.93,3.29,3.89,4.89,5.87,2.41,3,4.76,6,7.06,9.09,1.21,1.63,2.4,3.26,3.58,4.91a276.12,276.12,0,0,1,29.62,53.23c.8,1.89,1.57,3.81,2.34,5.72.47,1.22.94,2.43,1.4,3.65q1.37,3.64,2.65,7.33a272.51,272.51,0,0,1,7.86,27.32q2.52,10.77,4.18,21.86c.07.45.14.9.19,1.36q.46,3.15.84,6.33c.23,1.91.45,3.84.64,5.78.5,5,.86,10,1.09,15Q662.71,377.6,662.71,384Z"/><path class="cls-1" d="M557.49,601.28a275.07,275.07,0,0,1-157.91,59.28q-1.72.12-3.45.18c-1,0-2,.09-3.05.11-1.37,0-2.73.07-4.1.07-1.06,0-2.13,0-3.19,0-4.92,0-9.75-.15-14.58-.38a319.33,319.33,0,0,1-247.86,28.76A312.8,312.8,0,0,1,212.47,600,310.27,310.27,0,0,1,384,548.51h1.77l3.19,0a310.12,310.12,0,0,1,168.51,52.74Z"/><line class="cls-1" x1="388.98" y1="107.04" x2="388.98" y2="660.96"/><path class="cls-1" d="M531.8,384v0A316,316,0,0,1,477,562.63a319.23,319.23,0,0,1-88,87l-3.19,2.09c-.17.07-.24.22-.39.22-4.68,3.07-9.36,5.91-14.19,8.67a319.33,319.33,0,0,1-247.86,28.76A312.8,312.8,0,0,1,212.47,600,276,276,0,0,1,108.79,384v0A277.11,277.11,0,0,1,371.21,107.4c4.91,2.84,9.82,5.83,14.58,8.9,1.06.67,2.13,1.38,3.19,2.1l1.86,1.27A320.07,320.07,0,0,1,477,205.33,316.45,316.45,0,0,1,531.8,384Z"/><path class="cls-1" d="M640.77,84.25a310.86,310.86,0,0,1-83.28,82.43A312.61,312.61,0,0,1,477,205.33a311.38,311.38,0,0,1-88,14.09l-3.19,0H384a312.14,312.14,0,0,1-86-12A309.45,309.45,0,0,1,212.47,168,274.92,274.92,0,0,1,371.21,107.4c4.83-.22,9.66-.37,14.58-.37l3.19,0q11.11.11,22,1.13A315.78,315.78,0,0,1,640.77,84.25Z"/><line class="cls-1" x1="108.79" y1="384" x2="662.71" y2="384"/></g></svg>