<svg xmlns="http://www.w3.org/2000/svg" viewBox="0 0 1616.59 700"><defs><style>.cls-1{fill:none;stroke:#1b1464;stroke-miterlimit:10;stroke-width:40px;}.cls-2{fill:#1b1464;}</style></defs><g id="Artwork"><path class="cls-1" d="M571.65,342.07h0A229.66,229.66,0,0,1,353.38,571.47c-.95.06-1.91.12-2.86.15l-2.53.09c-1.14,0-2.27.06-3.4.06h-2.65c-4.08,0-8.09-.12-12.09-.31A229.86,229.86,0,0,1,112.17,342.08h0A229.84,229.84,0,0,1,329.85,112.63c4-.19,8-.32,12.09-.32l2.65,0q9.21.09,18.21.94A227.75,227.75,0,0,1,484.36,161.8q6.24,4.94,12.11,10.28,3.54,3.21,6.91,6.56c.75.74,1.5,1.49,2.24,2.25q2.24,2.25,4.4,4.58,3.24,3.48,6.35,7.11,2.07,2.41,4.06,4.87,3,3.69,5.86,7.54c1,1.35,2,2.7,3,4.07a228.67,228.67,0,0,1,24.58,44.16q1,2.35,1.94,4.74c.39,1,.78,2,1.16,3q1.14,3,2.2,6.08a226.48,226.48,0,0,1,6.52,22.66q2.08,8.94,3.46,18.13c.06.38.12.75.16,1.13.26,1.74.49,3.5.7,5.25.19,1.59.37,3.19.53,4.79.41,4.12.72,8.28.9,12.47C571.56,335,571.65,338.52,571.65,342.07Z"/><path class="cls-1" d="M571.65,342.07h0A229.66,229.66,0,0,1,353.38,571.47c-3-1.7-5.89-3.45-8.79-5.28l-2.65-1.72c-.07,0-.2-.13-.32-.19A261.16,261.16,0,0,1,222.21,345v-2.93h0a260.22,260.22,0,0,1,47-146.49,263.53,263.53,0,0,1,72.78-70.16c.88-.56,1.76-1.13,2.65-1.68l1.54-.94c5.41-3.43,11-6.54,16.67-9.53A261.92,261.92,0,0,1,553.45,93.42a257.88,257.88,0,0,1-69.09,68.38q6.24,4.94,12.11,10.28,3.54,3.21,6.91,6.56c.75.74,1.5,1.49,2.24,2.25,1.48,1.5,3,3,4.4,4.58q3.24,3.48,6.35,7.11,2.07,2.4,4.06,4.87,3,3.69,5.86,7.54c1,1.35,2,2.7,3,4.07a228.67,228.67,0,0,1,24.58,44.16c.66,1.57,1.3,3.15,1.94,4.74.39,1,.78,2,1.16,3,.75,2,1.49,4,2.2,6.08a226.48,226.48,0,0,1,6.52,22.66q2.08,8.94,3.46,18.13c.06.38.12.75.16,1.13.26,1.75.49,3.5.7,5.25.19,1.59.37,3.19.53,4.79.41,4.12.72,8.28.9,12.47C571.56,335,571.65,338.52,571.65,342.07Z"/><path class="cls-1" d="M484.36,522.3a228.1,228.1,0,0,1-131,49.17c-.95.06-1.91.12-2.86.15l-2.53.09c-1.14,0-2.27.06-3.4.06h-2.65c-4.08,0-8.09-.12-12.09-.31a264.89,264.89,0,0,1-205.61,23.86,259.57,259.57,0,0,1,73.93-74.12,257.23,257.23,0,0,1,142.3-42.68h1.47l2.65,0A257.21,257.21,0,0,1,484.36,522.3Z"/><line class="cls-1" x1="344.58" y1="112.33" x2="344.58" y2="571.8"/><path class="cls-1" d="M463.05,342.07h0a262.18,262.18,0,0,1-45.48,148.16,264.8,264.8,0,0,1-73,72.12l-2.65,1.73c-.14.07-.2.19-.32.19-3.88,2.54-7.77,4.9-11.77,7.19a264.89,264.89,0,0,1-205.61,23.86,259.57,259.57,0,0,1,73.93-74.12,228.9,228.9,0,0,1-86-179.13h0A229.84,229.84,0,0,1,329.85,112.63c4.07,2.35,8.14,4.83,12.09,7.37.88.57,1.76,1.15,2.65,1.75.51.35,1,.71,1.54,1a265.54,265.54,0,0,1,71.44,71.06A262.48,262.48,0,0,1,463.05,342.07Z"/><path class="cls-1" d="M553.45,93.42a257.88,257.88,0,0,1-69.09,68.38,259.36,259.36,0,0,1-66.79,32.06,258.42,258.42,0,0,1-73,11.68l-2.65,0h-1.47a258.84,258.84,0,0,1-71.31-10,256.78,256.78,0,0,1-71-32.7,228,228,0,0,1,131.68-50.25c4-.19,8-.32,12.09-.32l2.65,0q9.21.09,18.21.94A261.92,261.92,0,0,1,553.45,93.42Z"/><line class="cls-1" x1="112.17" y1="342.06" x2="571.64" y2="342.06"/><path class="cls-2" d="M688.2,239.18h99.14c7.84,0,13.6,2,17.52,6.39q6.28,6.1,6.28,18.31c0,8.43-2.09,14.54-6.28,18.61-3.92,4.36-9.68,6.39-17.52,6.39H764.58c-32.44.87-45.52,16.57-49.7,36.91V288.88H688.2c-7.85,0-13.61-2-17.53-6.39-4.19-4.07-6.28-10.18-6.28-18.61C664.39,246.74,673.55,239.18,688.2,239.18Zm26.68,171.48V350.79c0-31.39,17-48.83,45.51-50V410.66c0,17.14-5.75,31.09-22.49,31.09C720.89,441.75,714.88,427.8,714.88,410.66Z"/><path class="cls-2" d="M975.4,249c15.7,0,21.71,11.63,21.71,28.77v75.57l37.41-33.42a20.21,20.21,0,0,1,13.86-5.53c10.2,0,17.53,7.85,17.53,19.19,0,10.17-3.14,15.11-10.2,21.79L1035,373.67l23.81,35.17c5,7.85,8.11,15.7,8.11,22.38s-.53,11.33-7.59,16.28a18.8,18.8,0,0,1-11.25,3.77c-6,0-12.56-3.48-18.83-12.49L1004.44,401c-14.65-20.63-31.13-31.68-50.75-32V277.76C953.69,260.62,960,249,975.4,249ZM953.69,375.13c20.93,3.19,43.42,22.38,43.42,47.37,0,17.44-6.28,28.77-21.71,28.77s-21.71-11.62-21.71-28.77Z"/><path class="cls-2" d="M1091.19,401V321.39c0-17.14,6.28-28.77,21.71-28.77,15.7,0,21.71,11.63,21.71,28.77V401c0,17.15-6,28.77-21.71,28.77C1097.47,429.8,1091.19,418.18,1091.19,401Zm.52-147.35c0-13.08,8.63-25.87,21.19-25.87s21.19,12.79,21.19,25.87-8.9,25.57-21.19,25.57S1091.71,266.76,1091.71,253.68Z"/><path class="cls-2" d="M1170.57,426.86c3.4,0,19.62,4.07,32.43,4.07,8.37,0,15.17-2,15.17-7.85a5.08,5.08,0,0,0-3.66-4.94c-8.37-3.78-25.11-5.23-39.24-13.08,1.84-7.27,4.71-13.95,9.68-18.89a24.94,24.94,0,0,1,25.12-7.56c18.57,4.65,51.53,10.76,51.53,48,0,29.93-23,41.56-47.35,43.88-16,1.46-32.44-.87-43.68-4.65-10.21-3.48-15.44-10.17-16.22-15.69C1151.73,435,1160.63,426.86,1170.57,426.86ZM1154.87,369c0-33.71,26.68-43.59,52.06-43.59,9.94,0,40.8,2.61,46.3,13.37,2.09,4.07,3.14,7.55,3.14,10.75,0,7.27-4.71,19.76-18,19.76-5.23,0-23.81-5.23-34-3.78-14.65,2.33-31.39,17.15-32.7,37.21C1161.93,396.05,1154.87,386.46,1154.87,369Z"/><path class="cls-2" d="M1281.27,296.29h3.93V286.12c0-16.28,5.23-28.78,21.71-28.78s21.71,12.5,21.71,28.78v10.17h13.08c10.46,0,16,8.43,16,19.76s-4.7,20.06-16,20.06h-13.08c-19.62,0-36.36,13.37-43.42,35.45V336.11h-3.93c-10.72,0-16-8.72-16-20.06S1270.81,296.29,1281.27,296.29Zm23,59.29a46.59,46.59,0,0,1,24.33-8.14v27c0,9.59.78,16,2.61,19.18q2.76,5.24,10.21,5.24c9.15,0,17,3.77,17.78,14.53a10.62,10.62,0,0,1,.27,3.19A20.9,20.9,0,0,1,1355,429.4c-5.23,5.81-14.65,7.85-22,7.85-24.07,0-40.29-9.3-45.52-36C1283.63,383.48,1290.69,365.17,1304.29,355.58Z"/><path class="cls-2" d="M1372.37,395.18a46.12,46.12,0,0,1,.27-6.1c1.3-27,14.91-52.32,42.11-52.32,14.39,0,28,8.14,35.31,24.71l1,2.32a29.91,29.91,0,0,0-8.63-1.45c-17.79,0-26.68,13.37-26.68,32.84,0,19.76,9.68,32.84,26.68,32.84,14.91,0,26.42-11.91,26.42-32.84,0-7.27,2.35-64.81-60.43-66,10.2-4.65,23.81-6.4,34-6.4,44.47,0,69.84,30.52,69.84,72.37,0,43-25.9,72.37-69.84,72.37C1397.22,467.55,1372.37,436.16,1372.37,395.18Z"/><path class="cls-2" d="M816.5,330.7c9.68-12.79,25.89-21.8,47.6-21.8,34.53,0,59.65,25.29,59.65,61.62,0,20.05-7.59,29.93-23,29.93H844c0,11.63,17,14.82,24.59,14.82,8.11,0,16.48-1.74,23-3.19a40.19,40.19,0,0,1,10.2-1.46c9.68,0,14.39,7.27,14.39,17.44,0,21.51-36.1,25.87-50,25.87-19.62,0-39.24-6.69-50.75-22.67a41,41,0,0,1-2.09-44.18c7.06-11.91,19.35-19.76,35.31-19.76H884c0-10.46-6.28-19.18-19.89-20.06C839,345.81,806,365,803.16,403.94,797.14,379.23,800.8,351.33,816.5,330.7Z"/></g></svg>