<svg xmlns="http://www.w3.org/2000/svg" viewBox="0 0 1616.59 700"><defs><style>.cls-1{fill:#231f20;}</style></defs><g id="Artwork"><path class="cls-1" d="M158.16,162.92H323c13.05,0,22.62,3.38,29.14,10.63q10.44,10.15,10.44,30.45c0,14-3.48,24.16-10.44,30.93-6.52,7.25-16.09,10.63-29.14,10.63H285.18c-53.94,1.45-75.69,27.55-82.65,61.38V245.56H158.16c-13,0-22.62-3.38-29.14-10.63-7-6.77-10.44-16.92-10.44-30.93C118.58,175.48,133.8,162.92,158.16,162.92Zm44.37,285.15V348.51c0-52.2,28.28-81.2,75.69-83.13V448.07c0,28.51-9.57,51.71-37.41,51.71C212.54,499.78,202.53,476.58,202.53,448.07Z"/><path class="cls-1" d="M635.76,179.23c26.1,0,36.11,19.33,36.11,47.85V352.74l62.2-55.58A33.65,33.65,0,0,1,757.13,288c17,0,29.14,13,29.14,31.89,0,16.92-5.22,25.14-17,36.25l-34.37,30.45,39.59,58.48c8.26,13.05,13.48,26.1,13.48,37.21s-.87,18.85-12.61,27.07a31.21,31.21,0,0,1-18.71,6.28c-10,0-20.88-5.8-31.32-20.78L684.05,432c-24.36-34.32-51.77-52.68-84.39-53.16V227.08C599.66,198.56,610.1,179.23,635.76,179.23ZM599.66,389c34.8,5.31,72.21,37.21,72.21,78.77,0,29-10.44,47.85-36.11,47.85s-36.1-19.33-36.1-47.85Z"/><path class="cls-1" d="M828.31,432.06V299.63c0-28.51,10.44-47.85,36.11-47.85,26.1,0,36.1,19.34,36.1,47.85V432.06c0,28.51-10,47.85-36.1,47.85C838.75,479.91,828.31,460.57,828.31,432.06Zm.87-245c0-21.75,14.36-43,35.24-43s35.23,21.26,35.23,43-14.79,42.53-35.23,42.53S829.18,208.77,829.18,187Z"/><path class="cls-1" d="M960.31,475c5.66,0,32.63,6.77,53.94,6.77,13.92,0,25.23-3.39,25.23-13,0-3.87-2.17-6.77-6.09-8.22-13.92-6.28-41.76-8.7-65.25-21.75,3.05-12.08,7.83-23.19,16.1-31.41A41.47,41.47,0,0,1,1026,394.78c30.88,7.74,85.69,17.89,85.69,79.75,0,49.78-38.28,69.11-78.73,73-26.54,2.41-53.94-1.45-72.65-7.73-17-5.8-25.66-16.92-27-26.1C929,488.54,943.78,475,960.31,475Zm-26.1-96.18c0-56.06,44.37-72.49,86.57-72.49,16.53,0,67.86,4.35,77,22.23,3.48,6.77,5.22,12.57,5.22,17.88,0,12.09-7.83,32.87-30,32.87-8.7,0-39.59-8.7-56.55-6.29-24.36,3.87-52.2,28.52-54.38,61.87C946,423.78,934.21,407.83,934.21,378.83Z"/><path class="cls-1" d="M1144.41,257.89h6.52V241c0-27.06,8.7-47.85,36.11-47.85s36.1,20.79,36.1,47.85v16.92h21.75c17.4,0,26.54,14,26.54,32.86s-7.83,33.35-26.54,33.35h-21.75c-32.62,0-60.46,22.23-72.21,59v-59h-6.52c-17.84,0-26.54-14.5-26.54-33.35S1127,257.89,1144.41,257.89Zm38.28,98.59c11.74-8.21,25.23-12.56,40.45-13.53v44.94c0,15.95,1.31,26.59,4.35,31.9q4.58,8.7,17,8.7c15.22,0,28.27,6.29,29.58,24.17a18.52,18.52,0,0,1,.43,5.32,34.77,34.77,0,0,1-7.39,21.26c-8.7,9.67-24.36,13.05-36.54,13.05-40,0-67-15.47-75.69-59.93C1148.32,402.88,1160.07,372.43,1182.69,356.48Z"/><path class="cls-1" d="M1295.9,422.33a78.43,78.43,0,0,1,.44-10.15c2.17-44.94,24.79-87,70-87,23.93,0,46.55,13.53,58.73,41.08l1.74,3.87a49.7,49.7,0,0,0-14.36-2.42c-29.58,0-44.37,22.23-44.37,54.61,0,32.87,16.1,54.62,44.37,54.62,24.8,0,43.94-19.82,43.94-54.62,0-12.08,3.91-107.77-100.49-109.71,17-7.73,39.59-10.63,56.55-10.63,74,0,116.15,50.75,116.15,120.34,0,71.53-43.07,120.35-116.15,120.35C1337.23,542.68,1295.9,490.48,1295.9,422.33Z"/><path class="cls-1" d="M371.52,315.11c16.09-21.27,43.06-36.25,79.17-36.25,57.42,0,99.18,42,99.18,102.46,0,33.35-12.62,49.78-38.28,49.78h-94.4c0,19.33,28.28,24.65,40.89,24.65,13.49,0,27.41-2.9,38.28-5.32a67.46,67.46,0,0,1,17-2.42c16.09,0,23.92,12.09,23.92,29,0,35.77-60,43-83.08,43-32.63,0-65.25-11.12-84.39-37.7-15.23-21.27-17-50.75-3.48-73.46C378,389.05,398.49,376,425,376h58.73c0-17.4-10.44-31.9-33.06-33.35-41.76-2.41-96.57,29.48-101.36,94.25C339.33,395.82,345.42,349.42,371.52,315.11Z"/></g></svg>