<svg xmlns="http://www.w3.org/2000/svg" viewBox="0 0 779.13 779.13"><defs><style>.cls-1{fill:none;stroke:#fff;stroke-miterlimit:10;stroke-width:40px;}</style></defs><g id="Artwork"><path class="cls-1" d="M691.38,404.11v0A276.85,276.85,0,0,1,428.25,680.67c-1.15.08-2.3.14-3.45.19s-2,.08-3.06.1c-1.36,0-2.73.07-4.09.07-1.07,0-2.13,0-3.2,0-4.91,0-9.74-.15-14.57-.38A277.12,277.12,0,0,1,137.45,404.14v0a277.12,277.12,0,0,1,262.43-276.6c4.83-.22,9.66-.37,14.57-.37l3.2,0q11.12.11,22,1.13a274.6,274.6,0,0,1,146.55,58.5q7.51,6,14.59,12.4c2.84,2.58,5.61,5.22,8.34,7.9.9.9,1.8,1.8,2.69,2.71,1.8,1.82,3.56,3.66,5.31,5.53,2.6,2.8,5.16,5.66,7.65,8.57q2.49,2.91,4.9,5.88c2.41,3,4.76,6,7.06,9.08,1.21,1.63,2.4,3.26,3.57,4.91A276.69,276.69,0,0,1,669.9,297c.8,1.89,1.58,3.81,2.33,5.72.48,1.22.95,2.43,1.4,3.65.93,2.43,1.81,4.87,2.66,7.33A275.18,275.18,0,0,1,684.15,341q2.52,10.77,4.17,21.86c.08.45.14.91.2,1.36.31,2.09.59,4.21.84,6.33.23,1.92.45,3.84.64,5.78.5,5,.86,10,1.09,15Q691.38,397.71,691.38,404.11Z"/><path class="cls-1" d="M691.38,404.11v0A276.85,276.85,0,0,1,428.25,680.67c-3.58-2-7.11-4.16-10.6-6.36l-3.2-2.08c-.07,0-.23-.15-.38-.23A314.82,314.82,0,0,1,270.12,407.66v-3.55a313.56,313.56,0,0,1,56.6-176.59,317.87,317.87,0,0,1,87.73-84.59l3.2-2c.62-.38,1.23-.76,1.86-1.13,6.51-4.14,13.27-7.89,20.1-11.49a315.78,315.78,0,0,1,229.83-23.93,311,311,0,0,1-83.28,82.43q7.51,6,14.59,12.4c2.84,2.58,5.61,5.22,8.34,7.9.9.9,1.8,1.8,2.69,2.71,1.79,1.81,3.56,3.66,5.31,5.53,2.6,2.8,5.16,5.66,7.65,8.57q2.49,2.9,4.9,5.88c2.41,3,4.76,6,7.06,9.08,1.21,1.63,2.4,3.26,3.57,4.91A276.69,276.69,0,0,1,669.9,297c.8,1.89,1.57,3.81,2.33,5.72.48,1.22.95,2.43,1.4,3.65.92,2.43,1.8,4.87,2.66,7.33A275.18,275.18,0,0,1,684.15,341q2.52,10.77,4.17,21.86c.08.45.14.91.2,1.36q.47,3.15.84,6.33c.23,1.92.45,3.84.64,5.78.5,5,.86,10,1.09,15Q691.38,397.71,691.38,404.11Z"/><path class="cls-1" d="M586.16,621.39a275,275,0,0,1-157.91,59.28c-1.15.08-2.3.14-3.45.19s-2,.08-3.06.1c-1.36,0-2.73.07-4.09.07-1.07,0-2.13,0-3.2,0-4.91,0-9.74-.15-14.57-.38A319.33,319.33,0,0,1,152,709.43a312.8,312.8,0,0,1,89.12-89.35,310.27,310.27,0,0,1,171.55-51.46h1.76l3.2,0a310,310,0,0,1,168.51,52.73Z"/><line class="cls-1" x1="417.64" y1="127.15" x2="417.64" y2="681.07"/><path class="cls-1" d="M560.46,404.11v0a316,316,0,0,1-54.83,178.6,319.23,319.23,0,0,1-88,87l-3.2,2.09c-.16.07-.23.22-.38.22-4.68,3.07-9.36,5.91-14.19,8.67A319.33,319.33,0,0,1,152,709.43a312.8,312.8,0,0,1,89.12-89.35A276,276,0,0,1,137.45,404.14v0a277.12,277.12,0,0,1,262.43-276.6c4.91,2.84,9.82,5.83,14.57,8.9,1.07.67,2.13,1.38,3.2,2.1.62.42,1.23.85,1.86,1.27a320.21,320.21,0,0,1,86.12,85.66A316.44,316.44,0,0,1,560.46,404.11Z"/><path class="cls-1" d="M669.44,104.36a311,311,0,0,1-83.28,82.43,312.61,312.61,0,0,1-80.53,38.65,311.49,311.49,0,0,1-88,14.09l-3.2,0h-1.76a311.71,311.71,0,0,1-86-12,309.31,309.31,0,0,1-85.58-39.42,274.89,274.89,0,0,1,158.74-60.59c4.83-.22,9.66-.37,14.57-.37l3.2,0q11.12.11,22,1.13a315.78,315.78,0,0,1,229.83-23.93Z"/><line class="cls-1" x1="137.46" y1="404.11" x2="691.38" y2="404.11"/></g></svg>