<svg xmlns="http://www.w3.org/2000/svg" viewBox="0 0 1616.59 1500"><defs><style>.cls-1{fill:none;stroke:#1b1464;stroke-miterlimit:10;stroke-width:60px;}.cls-2{fill:#1b1464;}</style></defs><g id="Artwork"><path class="cls-1" d="M1265.31,630.56v0c0,158.69-74.11,300.11-189.67,391.63A495.7,495.7,0,0,1,791,1129.08c-2.08.14-4.15.26-6.23.33-1.84.08-3.66.16-5.5.2-2.46.06-4.93.11-7.39.11-1.92,0-3.84,0-5.76,0-8.85,0-17.56-.27-26.26-.68a495.38,495.38,0,0,1-286.15-109.21c-114-91.37-186.9-231.82-186.9-389.27v0A499.53,499.53,0,0,1,739.87,132c8.7-.41,17.41-.68,26.26-.68,1.92,0,3.84,0,5.76,0q20,.19,39.59,2a495,495,0,0,1,264.16,105.46q13.56,10.73,26.31,22.35,7.68,7,15,14.25c1.63,1.61,3.26,3.24,4.87,4.89q4.86,4.9,9.56,10,7,7.56,13.8,15.45,4.48,5.23,8.82,10.58,6.51,8,12.74,16.39,3.26,4.38,6.43,8.83a499.1,499.1,0,0,1,53.41,96c1.43,3.42,2.85,6.87,4.21,10.32.85,2.19,1.7,4.38,2.52,6.57q2.49,6.57,4.79,13.22a494.85,494.85,0,0,1,14.17,49.24q4.53,19.42,7.52,39.41c.13.81.25,1.63.35,2.44.56,3.78,1.06,7.6,1.51,11.42.43,3.45.81,6.92,1.16,10.41q1.34,13.44,2,27.1Q1265.32,619,1265.31,630.56Z"/><path class="cls-1" d="M1265.31,630.56v0c0,158.69-74.11,300.11-189.67,391.63A495.7,495.7,0,0,1,791,1129.08c-6.46-3.7-12.82-7.5-19.12-11.47-1.92-1.24-3.84-2.48-5.76-3.74-.13,0-.42-.28-.69-.41A567.52,567.52,0,0,1,506,637v-6.4A565.36,565.36,0,0,1,608,312.23,572.79,572.79,0,0,1,766.13,159.77q2.88-1.85,5.76-3.65c1.13-.7,2.23-1.37,3.36-2,11.74-7.47,23.92-14.23,36.23-20.73a569.37,569.37,0,0,1,414.29-43.13,560.29,560.29,0,0,1-150.13,148.59q13.56,10.73,26.31,22.35,7.68,7,15,14.25c1.63,1.61,3.26,3.24,4.87,4.89,3.22,3.25,6.42,6.59,9.56,10q7,7.56,13.8,15.45,4.48,5.2,8.82,10.58,6.51,8,12.74,16.39,3.26,4.38,6.43,8.83a499.1,499.1,0,0,1,53.41,96c1.43,3.42,2.83,6.87,4.21,10.32.85,2.19,1.7,4.38,2.52,6.57q2.46,6.57,4.79,13.22a494.85,494.85,0,0,1,14.17,49.24q4.53,19.42,7.52,39.41c.13.81.25,1.63.35,2.44q.84,5.7,1.51,11.42c.43,3.45.81,6.92,1.16,10.41q1.34,13.44,2,27.1Q1265.32,619,1265.31,630.56Z"/><path class="cls-1" d="M1075.64,1022.23A495.7,495.7,0,0,1,791,1129.08c-2.08.14-4.15.26-6.23.33-1.84.08-3.66.16-5.5.2-2.46.06-4.93.11-7.39.11-1.92,0-3.84,0-5.76,0-8.85,0-17.56-.27-26.26-.68a575.67,575.67,0,0,1-446.8,51.84,564,564,0,0,1,160.65-161.05A559,559,0,0,1,763,927.11h3.17l5.76,0a559,559,0,0,1,303.75,95.07Z"/><line class="cls-1" x1="771.89" y1="131.32" x2="771.89" y2="1129.8"/><path class="cls-1" d="M1029.33,630.56v0c0,119.3-36.35,230.3-98.84,322a575.55,575.55,0,0,1-158.6,156.73c-1.92,1.26-3.84,2.52-5.76,3.76-.29.14-.42.41-.69.41-8.44,5.52-16.87,10.64-25.57,15.62a575.67,575.67,0,0,1-446.8,51.84,564,564,0,0,1,160.65-161.05c-114-91.37-186.9-231.82-186.9-389.27v0A499.53,499.53,0,0,1,739.87,132c8.84,5.11,17.7,10.5,26.26,16,1.92,1.22,3.84,2.5,5.76,3.8,1.13.75,2.23,1.53,3.36,2.29a576.93,576.93,0,0,1,155.24,154.4A570.46,570.46,0,0,1,1029.33,630.56Z"/><path class="cls-1" d="M1225.77,90.23a560.29,560.29,0,0,1-150.13,148.59,563.46,563.46,0,0,1-145.15,69.67,561.77,561.77,0,0,1-158.6,25.4l-5.76.06H763a561.76,561.76,0,0,1-155-21.72,557.59,557.59,0,0,1-154.27-71A495.46,495.46,0,0,1,739.87,132c8.7-.41,17.41-.68,26.26-.68,1.92,0,3.84,0,5.76,0q20,.19,39.59,2a569.37,569.37,0,0,1,414.29-43.13Z"/><line class="cls-1" x1="266.83" y1="630.56" x2="1265.31" y2="630.56"/><path class="cls-2" d="M453.17,1267.08h81.3c6.44,0,11.15,1.67,14.37,5.25q5.14,5,5.15,15c0,6.91-1.72,11.92-5.15,15.25-3.22,3.58-7.93,5.25-14.37,5.25H515.81c-26.6.71-37.32,13.58-40.76,30.26v-30.26H453.17c-6.43,0-11.15-1.67-14.37-5.25-3.43-3.33-5.15-8.34-5.15-15.25C433.65,1273.28,441.16,1267.08,453.17,1267.08Zm21.88,140.61V1358.6c0-25.74,13.95-40,37.33-41v90.08c0,14.07-4.72,25.51-18.45,25.51C480,1433.2,475.05,1421.76,475.05,1407.69Z"/><path class="cls-2" d="M688.69,1275.13c12.87,0,17.8,9.53,17.8,23.59v62l30.67-27.41a16.61,16.61,0,0,1,11.37-4.53c8.37,0,14.38,6.43,14.38,15.73,0,8.34-2.58,12.39-8.37,17.87l-16.95,15,19.52,28.84c4.08,6.43,6.65,12.87,6.65,18.35s-.43,9.29-6.22,13.34a15.34,15.34,0,0,1-9.22,3.1c-4.93,0-10.3-2.86-15.45-10.25l-20.37-31c-12-16.92-25.53-26-41.62-26.21v-74.84C670.88,1284.66,676,1275.13,688.69,1275.13Zm-17.81,103.43c17.16,2.62,35.61,18.35,35.61,38.85,0,14.3-5.15,23.59-17.8,23.59s-17.81-9.53-17.81-23.59Z"/><path class="cls-2" d="M783.63,1399.8v-65.3c0-14.06,5.15-23.6,17.81-23.6,12.87,0,17.8,9.54,17.8,23.6v65.3c0,14.06-4.93,23.59-17.8,23.59C788.78,1423.39,783.63,1413.86,783.63,1399.8Zm.43-120.83c0-10.73,7.08-21.21,17.38-21.21s17.37,10.48,17.37,21.21-7.29,21-17.37,21S784.06,1289.69,784.06,1279Z"/><path class="cls-2" d="M848.73,1421c2.78,0,16.08,3.34,26.59,3.34,6.87,0,12.45-1.67,12.45-6.44a4.19,4.19,0,0,0-3-4.05c-6.86-3.1-20.59-4.29-32.17-10.72,1.5-6,3.86-11.44,7.93-15.49a20.45,20.45,0,0,1,20.6-6.2c15.23,3.81,42.25,8.82,42.25,39.32,0,24.55-18.87,34.08-38.82,36-13.09,1.19-26.6-.72-35.82-3.81-8.37-2.86-12.66-8.34-13.3-12.87C833.28,1427.65,840.58,1421,848.73,1421Zm-12.87-47.43c0-27.64,21.88-35.74,42.68-35.74,8.15,0,33.46,2.14,38,11a19.47,19.47,0,0,1,2.57,8.82c0,6-3.86,16.2-14.8,16.2-4.29,0-19.52-4.29-27.88-3.1-12,1.91-25.74,14.07-26.82,30.51C841.65,1395.72,835.86,1387.85,835.86,1373.55Z"/><path class="cls-2" d="M939.51,1313.91h3.21v-8.34c0-13.34,4.29-23.59,17.81-23.59s17.8,10.25,17.8,23.59v8.34h10.73c8.58,0,13.08,6.91,13.08,16.21s-3.86,16.44-13.08,16.44H978.33c-16.09,0-29.81,11-35.61,29.08v-29.08h-3.21c-8.8,0-13.09-7.15-13.09-16.44S930.93,1313.91,939.51,1313.91Zm18.87,48.62a38.25,38.25,0,0,1,20-6.67V1378c0,7.87.65,13.11,2.15,15.73q2.25,4.29,8.36,4.29c7.51,0,13.95,3.1,14.59,11.92a9.18,9.18,0,0,1,.21,2.62,17.15,17.15,0,0,1-3.64,10.49c-4.29,4.76-12,6.43-18,6.43-19.74,0-33-7.63-37.32-29.55C941.44,1385.41,947.23,1370.4,958.38,1362.53Z"/><path class="cls-2" d="M1014.21,1395a38.11,38.11,0,0,1,.22-5c1.07-22.16,12.22-42.9,34.53-42.9,11.8,0,23,6.67,29,20.26l.86,1.91a24.34,24.34,0,0,0-7.08-1.2c-14.59,0-21.88,11-21.88,26.93,0,16.21,7.94,26.94,21.88,26.94,12.23,0,21.66-9.78,21.66-26.94,0-6,1.93-53.14-49.55-54.1,8.37-3.81,19.52-5.24,27.89-5.24,36.46,0,57.27,25,57.27,59.34,0,35.28-21.23,59.35-57.27,59.35C1034.59,1454.35,1014.21,1428.61,1014.21,1395Z"/><path class="cls-2" d="M558.38,1342.13c7.94-10.49,21.24-17.88,39-17.88,28.32,0,48.91,20.74,48.91,50.53,0,16.44-6.22,24.55-18.88,24.55H580.91c0,9.53,13.94,12.15,20.16,12.15,6.65,0,13.51-1.43,18.88-2.62a33.22,33.22,0,0,1,8.36-1.19c7.94,0,11.8,6,11.8,14.3,0,17.63-29.6,21.21-41,21.21-16.09,0-32.18-5.48-41.62-18.59a33.61,33.61,0,0,1-1.71-36.23c5.79-9.77,15.87-16.2,29-16.2h29c0-8.58-5.14-15.73-16.3-16.45-20.59-1.19-47.62,14.54-50,46.48C542.51,1381.93,545.51,1359.05,558.38,1342.13Z"/></g></svg>