<svg xmlns="http://www.w3.org/2000/svg" viewBox="0 0 1616.59 700"><defs><style>.cls-1{fill:#1b1464;}</style></defs><g id="Artwork"><path class="cls-1" d="M126.81,153.35H291.67c13.05,0,22.62,3.39,29.15,10.63q10.44,10.16,10.44,30.45c0,14-3.48,24.17-10.44,30.93-6.53,7.25-16.1,10.64-29.15,10.64H253.83c-53.94,1.45-75.69,27.55-82.65,61.38V236H126.81c-13,0-22.62-3.39-29.14-10.64-7-6.76-10.44-16.91-10.44-30.93C87.23,165.92,102.45,153.35,126.81,153.35ZM171.18,438.5V338.94c0-52.19,28.27-81.19,75.69-83.13V438.5c0,28.52-9.57,51.72-37.41,51.72C181.18,490.22,171.18,467,171.18,438.5Z"/><path class="cls-1" d="M604.41,169.67c26.1,0,36.11,19.33,36.11,47.84V343.17l62.2-55.58a33.65,33.65,0,0,1,23.06-9.18c17,0,29.14,13,29.14,31.9,0,16.91-5.22,25.13-17,36.25L703.59,377l39.59,58.48c8.26,13,13.48,26.1,13.48,37.22s-.87,18.85-12.61,27.06a31.22,31.22,0,0,1-18.71,6.29c-10,0-20.88-5.8-31.32-20.79L652.7,422.44c-24.36-34.32-51.77-52.69-84.39-53.17V217.51C568.31,189,578.75,169.67,604.41,169.67Zm-36.1,209.75c34.8,5.32,72.21,37.22,72.21,78.78,0,29-10.44,47.85-36.11,47.85s-36.1-19.34-36.1-47.85Z"/><path class="cls-1" d="M797,422.49V290.07c0-28.52,10.44-47.85,36.1-47.85,26.1,0,36.11,19.33,36.11,47.85V422.49c0,28.52-10,47.85-36.11,47.85C807.4,470.34,797,451,797,422.49Zm.87-245c0-21.75,14.35-43,35.23-43s35.24,21.27,35.24,43S853.51,220,833.06,220,797.83,199.21,797.83,177.46Z"/><path class="cls-1" d="M929,465.45c5.66,0,32.62,6.76,53.94,6.76,13.92,0,25.23-3.38,25.23-13,0-3.86-2.18-6.76-6.09-8.21-13.92-6.28-41.76-8.7-65.25-21.75,3.05-12.08,7.83-23.2,16.09-31.42a41.46,41.46,0,0,1,41.76-12.56c30.89,7.73,85.7,17.88,85.7,79.74,0,49.78-38.28,69.12-78.74,73-26.53,2.42-53.93-1.45-72.64-7.73-17-5.8-25.66-16.92-27-26.1C897.64,479,912.43,465.45,929,465.45Zm-26.1-96.18c0-56.06,44.37-72.5,86.56-72.5,16.53,0,67.86,4.35,77,22.23,3.48,6.77,5.22,12.57,5.22,17.89,0,12.08-7.83,32.86-30,32.86-8.7,0-39.58-8.7-56.55-6.28-24.36,3.87-52.19,28.51-54.37,61.86C914.61,414.22,902.86,398.27,902.86,369.27Z"/><path class="cls-1" d="M1113.06,248.32h6.52V231.4c0-27.06,8.7-47.84,36.11-47.84s36.1,20.78,36.1,47.84v16.92h21.75c17.4,0,26.54,14,26.54,32.87s-7.83,33.34-26.54,33.34h-21.75c-32.62,0-60.46,22.24-72.21,59v-59h-6.52c-17.84,0-26.54-14.49-26.54-33.34S1095.66,248.32,1113.06,248.32Zm38.28,98.6c11.74-8.22,25.23-12.57,40.45-13.54v44.95c0,15.95,1.31,26.58,4.35,31.9q4.58,8.7,17,8.7c15.22,0,28.27,6.28,29.58,24.16a18.52,18.52,0,0,1,.43,5.32,34.77,34.77,0,0,1-7.39,21.26c-8.7,9.67-24.36,13.05-36.54,13.05-40,0-67-15.46-75.69-59.93C1117,393.31,1128.72,362.86,1151.34,346.92Z"/><path class="cls-1" d="M1264.55,412.77a78.27,78.27,0,0,1,.44-10.15c2.17-44.95,24.79-87,70-87,23.93,0,46.55,13.54,58.73,41.09l1.74,3.86a49.68,49.68,0,0,0-14.36-2.41c-29.58,0-44.37,22.23-44.37,54.61,0,32.86,16.1,54.61,44.37,54.61,24.8,0,43.94-19.81,43.94-54.61,0-12.08,3.91-107.78-100.49-109.71,17-7.73,39.59-10.63,56.55-10.63,73.95,0,120.15,50.74,120.15,120.34,0,71.53-47.07,120.34-120.15,120.34C1305.88,533.11,1264.55,480.91,1264.55,412.77Z"/><path class="cls-1" d="M340.17,305.54c16.09-21.27,43.06-36.25,79.17-36.25,57.42,0,99.17,42,99.17,102.46,0,33.35-12.61,49.78-38.27,49.78h-94.4c0,19.33,28.28,24.65,40.89,24.65,13.49,0,27.41-2.9,38.28-5.32a67.35,67.35,0,0,1,17-2.41c16.09,0,23.92,12.08,23.92,29,0,35.76-60,43-83.08,43-32.63,0-65.25-11.11-84.39-37.7C323.2,451.5,321.46,422,335,399.3c11.74-19.81,32.19-32.86,58.72-32.86H452.4c0-17.4-10.44-31.9-33.06-33.35-41.76-2.42-96.57,29.48-101.36,94.24C308,386.25,314.07,339.85,340.17,305.54Z"/></g></svg>